<svg xmlns="http://www.w3.org/2000/svg" xml:space="preserve" width="616.462" height="570.515" version="1.0" viewBox="0 0 462.358 427.902"><path d="M190 415.901c83.738-20.154 200.393-85.62 249.734-215.576 21.706-70.75 8.318-121.85-20.438-152.812C370.856-4.64 278.808.344 237.427 64.797c-22.955 39.382-24.177 71.846-51.514 99.747-24.209 24.707-91.227 22.212-120.89 42.902-123.521 84.397-7.633 259.667 93.849 186.047 28.7-20.732 69.148-86.353 76.69-101.76 9.004-16.414 25.513-59.265 31.713-63.165 18.582-11.744 44.176-31.305 58.331-48.124 38.06-38.745 29.666-83.893 4.349-69.649-25.318 14.245-47.1 92.092-63.6 117.292-25.202 14.24-99.442 23.474-75.094 23.88 0 0 101.093 1.927 140.77-28.023" style="display:inline;fill:none;stroke:#3d0c02;stroke-width:24.0009;stroke-linecap:round;stroke-linejoin:round;stroke-dasharray:none;stroke-opacity:1;paint-order:stroke fill markers"/></svg>