<svg xmlns="http://www.w3.org/2000/svg" xml:space="preserve" width="604.2" height="557.9" version="1.0" viewBox="0 0 453.1 418.5"><path d="M185 411c84-20 201-85 250-215 22-71 8-122-20-153C366-9 274-4 233 60c-23 39-24 72-52 100-24 25-91 22-121 43-123 84-7 259 94 186 29-21 69-87 77-102 9-16 26-59 32-63 18-12 44-31 58-48 38-39 30-84 4-70-25 14-47 92-63 117-25 15-100 24-75 24 0 0 101 2 140-28" style="display:inline;fill:none;stroke:#3d0c02;stroke-width:14.5753;stroke-linecap:round;stroke-linejoin:round;stroke-dasharray:none;stroke-opacity:1;paint-order:stroke fill markers"/></svg>